<mxfile host="app.diagrams.net" modified="2023-07-27T01:32:47.834Z" agent="Mozilla/5.0 (Macintosh; Intel Mac OS X 10_15_7) AppleWebKit/605.1.15 (KHTML, like Gecko) Version/16.3 Safari/605.1.15" etag="bzdR9QdVKRuBBu76jEmV" version="21.6.5" type="github">
  <diagram name="Page-1" id="_gHLLHE9bVL9B20DSESU">
    <mxGraphModel dx="710" dy="473" grid="1" gridSize="10" guides="1" tooltips="1" connect="1" arrows="1" fold="1" page="1" pageScale="1" pageWidth="850" pageHeight="1100" math="0" shadow="0">
      <root>
        <mxCell id="0" />
        <mxCell id="1" parent="0" />
        <mxCell id="SoCJYkqODRn5aVtLT6-E-4" value="" style="ellipse;whiteSpace=wrap;html=1;fillColor=#FFD966;strokeColor=#d6b656;opacity=50;" vertex="1" parent="1">
          <mxGeometry x="40" y="70" width="290" height="190" as="geometry" />
        </mxCell>
        <mxCell id="SoCJYkqODRn5aVtLT6-E-5" value="" style="ellipse;whiteSpace=wrap;html=1;fillColor=#74a7fe;strokeColor=#6c8ebf;opacity=40;" vertex="1" parent="1">
          <mxGeometry x="190" y="70" width="310" height="190" as="geometry" />
        </mxCell>
        <mxCell id="SoCJYkqODRn5aVtLT6-E-24" style="orthogonalLoop=1;jettySize=auto;html=1;exitX=0;exitY=1;exitDx=0;exitDy=0;entryX=1;entryY=0;entryDx=0;entryDy=0;startArrow=none;startFill=0;endArrow=none;endFill=0;strokeColor=#0433ff;" edge="1" parent="1" source="SoCJYkqODRn5aVtLT6-E-8" target="SoCJYkqODRn5aVtLT6-E-9">
          <mxGeometry relative="1" as="geometry" />
        </mxCell>
        <mxCell id="SoCJYkqODRn5aVtLT6-E-8" value="Y" style="ellipse;whiteSpace=wrap;html=1;aspect=fixed;fillColor=#cdeb8b;strokeColor=#36393d;" vertex="1" parent="1">
          <mxGeometry x="120" y="90" width="30" height="30" as="geometry" />
        </mxCell>
        <mxCell id="SoCJYkqODRn5aVtLT6-E-45" style="orthogonalLoop=1;jettySize=auto;html=1;exitX=1;exitY=1;exitDx=0;exitDy=0;entryX=0;entryY=0;entryDx=0;entryDy=0;endArrow=none;endFill=0;strokeColor=#0433ff;" edge="1" parent="1" source="SoCJYkqODRn5aVtLT6-E-9" target="SoCJYkqODRn5aVtLT6-E-10">
          <mxGeometry relative="1" as="geometry" />
        </mxCell>
        <mxCell id="SoCJYkqODRn5aVtLT6-E-9" value="Y" style="ellipse;whiteSpace=wrap;html=1;aspect=fixed;fillColor=#cdeb8b;strokeColor=#36393d;" vertex="1" parent="1">
          <mxGeometry x="70" y="140" width="30" height="30" as="geometry" />
        </mxCell>
        <mxCell id="SoCJYkqODRn5aVtLT6-E-10" value="Y" style="ellipse;whiteSpace=wrap;html=1;aspect=fixed;fillColor=#cdeb8b;strokeColor=#36393d;" vertex="1" parent="1">
          <mxGeometry x="110" y="190" width="30" height="30" as="geometry" />
        </mxCell>
        <mxCell id="SoCJYkqODRn5aVtLT6-E-11" value="Y" style="ellipse;whiteSpace=wrap;html=1;aspect=fixed;fillColor=#cdeb8b;strokeColor=#36393d;" vertex="1" parent="1">
          <mxGeometry x="380" y="80" width="30" height="30" as="geometry" />
        </mxCell>
        <mxCell id="SoCJYkqODRn5aVtLT6-E-12" value="Y" style="ellipse;whiteSpace=wrap;html=1;aspect=fixed;fillColor=#cdeb8b;strokeColor=#36393d;" vertex="1" parent="1">
          <mxGeometry x="430" y="130" width="30" height="30" as="geometry" />
        </mxCell>
        <mxCell id="SoCJYkqODRn5aVtLT6-E-13" value="Y" style="ellipse;whiteSpace=wrap;html=1;aspect=fixed;fillColor=#cdeb8b;strokeColor=#36393d;" vertex="1" parent="1">
          <mxGeometry x="250" y="170" width="30" height="30" as="geometry" />
        </mxCell>
        <mxCell id="SoCJYkqODRn5aVtLT6-E-36" style="orthogonalLoop=1;jettySize=auto;html=1;exitX=1;exitY=0;exitDx=0;exitDy=0;entryX=0;entryY=0.5;entryDx=0;entryDy=0;endArrow=none;endFill=0;strokeColor=#0433ff;" edge="1" parent="1" source="SoCJYkqODRn5aVtLT6-E-14" target="SoCJYkqODRn5aVtLT6-E-16">
          <mxGeometry relative="1" as="geometry" />
        </mxCell>
        <mxCell id="SoCJYkqODRn5aVtLT6-E-14" value="N" style="ellipse;whiteSpace=wrap;html=1;aspect=fixed;fillColor=#ffcccc;strokeColor=#36393d;" vertex="1" parent="1">
          <mxGeometry x="150" y="140" width="30" height="30" as="geometry" />
        </mxCell>
        <mxCell id="SoCJYkqODRn5aVtLT6-E-44" style="orthogonalLoop=1;jettySize=auto;html=1;exitX=1;exitY=0;exitDx=0;exitDy=0;entryX=0;entryY=0.5;entryDx=0;entryDy=0;endArrow=none;endFill=0;strokeColor=#CC0000;" edge="1" parent="1" source="SoCJYkqODRn5aVtLT6-E-16" target="SoCJYkqODRn5aVtLT6-E-11">
          <mxGeometry relative="1" as="geometry" />
        </mxCell>
        <mxCell id="SoCJYkqODRn5aVtLT6-E-16" value="N" style="ellipse;whiteSpace=wrap;html=1;aspect=fixed;fillColor=#ffcccc;strokeColor=#36393d;" vertex="1" parent="1">
          <mxGeometry x="250" y="110" width="30" height="30" as="geometry" />
        </mxCell>
        <mxCell id="SoCJYkqODRn5aVtLT6-E-18" value="N" style="ellipse;whiteSpace=wrap;html=1;aspect=fixed;fillColor=#ffcccc;strokeColor=#36393d;" vertex="1" parent="1">
          <mxGeometry x="350" y="140" width="30" height="30" as="geometry" />
        </mxCell>
        <mxCell id="SoCJYkqODRn5aVtLT6-E-19" value="N" style="ellipse;whiteSpace=wrap;html=1;aspect=fixed;fillColor=#ffcccc;strokeColor=#36393d;" vertex="1" parent="1">
          <mxGeometry x="430" y="170" width="30" height="30" as="geometry" />
        </mxCell>
        <mxCell id="SoCJYkqODRn5aVtLT6-E-20" value="N" style="ellipse;whiteSpace=wrap;html=1;aspect=fixed;fillColor=#ffcccc;strokeColor=#36393d;" vertex="1" parent="1">
          <mxGeometry x="390" y="200" width="30" height="30" as="geometry" />
        </mxCell>
        <mxCell id="SoCJYkqODRn5aVtLT6-E-37" style="orthogonalLoop=1;jettySize=auto;html=1;exitX=1;exitY=0.5;exitDx=0;exitDy=0;entryX=0;entryY=1;entryDx=0;entryDy=0;endArrow=none;endFill=0;strokeColor=#CC0000;" edge="1" parent="1" source="SoCJYkqODRn5aVtLT6-E-21" target="SoCJYkqODRn5aVtLT6-E-13">
          <mxGeometry relative="1" as="geometry" />
        </mxCell>
        <mxCell id="SoCJYkqODRn5aVtLT6-E-21" value="N" style="ellipse;whiteSpace=wrap;html=1;aspect=fixed;fillColor=#ffcccc;strokeColor=#36393d;" vertex="1" parent="1">
          <mxGeometry x="180" y="210" width="30" height="30" as="geometry" />
        </mxCell>
        <mxCell id="SoCJYkqODRn5aVtLT6-E-22" value="Online venue:&lt;br&gt;social media" style="text;html=1;strokeColor=#d6b656;fillColor=#FFD966;align=center;verticalAlign=middle;whiteSpace=wrap;rounded=0;opacity=50;" vertex="1" parent="1">
          <mxGeometry x="105" y="280" width="140" height="40" as="geometry" />
        </mxCell>
        <mxCell id="SoCJYkqODRn5aVtLT6-E-23" value="Offline venue:&lt;br&gt;public meetings" style="text;html=1;strokeColor=#6c8ebf;fillColor=#7EA6E0;align=center;verticalAlign=middle;whiteSpace=wrap;rounded=0;opacity=40;" vertex="1" parent="1">
          <mxGeometry x="290" y="280" width="140" height="40" as="geometry" />
        </mxCell>
        <mxCell id="SoCJYkqODRn5aVtLT6-E-26" style="orthogonalLoop=1;jettySize=auto;html=1;exitX=0.5;exitY=1;exitDx=0;exitDy=0;entryX=0.5;entryY=0;entryDx=0;entryDy=0;startArrow=none;startFill=0;endArrow=none;endFill=0;strokeColor=#0433ff;" edge="1" parent="1" source="SoCJYkqODRn5aVtLT6-E-8" target="SoCJYkqODRn5aVtLT6-E-10">
          <mxGeometry relative="1" as="geometry">
            <mxPoint x="134" y="126" as="sourcePoint" />
            <mxPoint x="106" y="154" as="targetPoint" />
          </mxGeometry>
        </mxCell>
        <mxCell id="SoCJYkqODRn5aVtLT6-E-28" style="orthogonalLoop=1;jettySize=auto;html=1;exitX=0;exitY=0.5;exitDx=0;exitDy=0;entryX=1;entryY=0.5;entryDx=0;entryDy=0;startArrow=none;startFill=0;endArrow=none;endFill=0;strokeColor=#0433ff;curved=1;" edge="1" parent="1" source="SoCJYkqODRn5aVtLT6-E-13" target="SoCJYkqODRn5aVtLT6-E-10">
          <mxGeometry relative="1" as="geometry">
            <mxPoint x="145" y="130" as="sourcePoint" />
            <mxPoint x="135" y="200" as="targetPoint" />
          </mxGeometry>
        </mxCell>
        <mxCell id="SoCJYkqODRn5aVtLT6-E-29" style="orthogonalLoop=1;jettySize=auto;html=1;exitX=0;exitY=0;exitDx=0;exitDy=0;entryX=0.694;entryY=0.978;entryDx=0;entryDy=0;startArrow=none;startFill=0;endArrow=none;endFill=0;strokeColor=#0433ff;curved=1;entryPerimeter=0;" edge="1" parent="1" source="SoCJYkqODRn5aVtLT6-E-21" target="SoCJYkqODRn5aVtLT6-E-14">
          <mxGeometry relative="1" as="geometry">
            <mxPoint x="260" y="195" as="sourcePoint" />
            <mxPoint x="150" y="215" as="targetPoint" />
          </mxGeometry>
        </mxCell>
        <mxCell id="SoCJYkqODRn5aVtLT6-E-30" style="orthogonalLoop=1;jettySize=auto;html=1;exitX=0;exitY=0.5;exitDx=0;exitDy=0;entryX=1;entryY=0.5;entryDx=0;entryDy=0;startArrow=none;startFill=0;endArrow=none;endFill=0;strokeColor=#0433ff;curved=1;" edge="1" parent="1" source="SoCJYkqODRn5aVtLT6-E-18" target="SoCJYkqODRn5aVtLT6-E-16">
          <mxGeometry relative="1" as="geometry">
            <mxPoint x="323" y="177.5" as="sourcePoint" />
            <mxPoint x="310" y="132.5" as="targetPoint" />
          </mxGeometry>
        </mxCell>
        <mxCell id="SoCJYkqODRn5aVtLT6-E-33" style="orthogonalLoop=1;jettySize=auto;html=1;entryX=0;entryY=0.5;entryDx=0;entryDy=0;startArrow=none;startFill=0;endArrow=none;endFill=0;strokeColor=#0433ff;curved=1;exitX=1;exitY=1;exitDx=0;exitDy=0;" edge="1" parent="1" source="SoCJYkqODRn5aVtLT6-E-18">
          <mxGeometry relative="1" as="geometry">
            <mxPoint x="485" y="207" as="sourcePoint" />
            <mxPoint x="430" y="185" as="targetPoint" />
          </mxGeometry>
        </mxCell>
        <mxCell id="SoCJYkqODRn5aVtLT6-E-35" style="orthogonalLoop=1;jettySize=auto;html=1;entryX=0;entryY=1;entryDx=0;entryDy=0;startArrow=none;startFill=0;endArrow=none;endFill=0;strokeColor=#0433ff;exitX=1;exitY=0.5;exitDx=0;exitDy=0;rounded=1;" edge="1" parent="1" source="SoCJYkqODRn5aVtLT6-E-20" target="SoCJYkqODRn5aVtLT6-E-19">
          <mxGeometry relative="1" as="geometry">
            <mxPoint x="415" y="210" as="sourcePoint" />
            <mxPoint x="386" y="176" as="targetPoint" />
          </mxGeometry>
        </mxCell>
        <mxCell id="SoCJYkqODRn5aVtLT6-E-38" style="orthogonalLoop=1;jettySize=auto;html=1;exitX=0.5;exitY=0;exitDx=0;exitDy=0;entryX=0.5;entryY=1;entryDx=0;entryDy=0;endArrow=none;endFill=0;strokeColor=#CC0000;" edge="1" parent="1" source="SoCJYkqODRn5aVtLT6-E-13" target="SoCJYkqODRn5aVtLT6-E-16">
          <mxGeometry relative="1" as="geometry">
            <mxPoint x="220" y="235" as="sourcePoint" />
            <mxPoint x="264" y="206" as="targetPoint" />
          </mxGeometry>
        </mxCell>
        <mxCell id="SoCJYkqODRn5aVtLT6-E-39" style="orthogonalLoop=1;jettySize=auto;html=1;exitX=1;exitY=0;exitDx=0;exitDy=0;entryX=0;entryY=0.5;entryDx=0;entryDy=0;endArrow=none;endFill=0;strokeColor=#0433ff;" edge="1" parent="1" source="SoCJYkqODRn5aVtLT6-E-13" target="SoCJYkqODRn5aVtLT6-E-11">
          <mxGeometry relative="1" as="geometry">
            <mxPoint x="300" y="190" as="sourcePoint" />
            <mxPoint x="300" y="160" as="targetPoint" />
          </mxGeometry>
        </mxCell>
        <mxCell id="SoCJYkqODRn5aVtLT6-E-40" style="orthogonalLoop=1;jettySize=auto;html=1;exitX=0;exitY=0;exitDx=0;exitDy=0;entryX=1;entryY=1;entryDx=0;entryDy=0;endArrow=none;endFill=0;strokeColor=#0433ff;" edge="1" parent="1" source="SoCJYkqODRn5aVtLT6-E-12" target="SoCJYkqODRn5aVtLT6-E-11">
          <mxGeometry relative="1" as="geometry">
            <mxPoint x="286" y="184" as="sourcePoint" />
            <mxPoint x="390" y="105" as="targetPoint" />
          </mxGeometry>
        </mxCell>
        <mxCell id="SoCJYkqODRn5aVtLT6-E-41" style="orthogonalLoop=1;jettySize=auto;html=1;entryX=0;entryY=0.5;entryDx=0;entryDy=0;startArrow=none;startFill=0;endArrow=none;endFill=0;strokeColor=#0433ff;curved=1;exitX=1;exitY=1;exitDx=0;exitDy=0;" edge="1" parent="1" source="SoCJYkqODRn5aVtLT6-E-16" target="SoCJYkqODRn5aVtLT6-E-20">
          <mxGeometry relative="1" as="geometry">
            <mxPoint x="386" y="176" as="sourcePoint" />
            <mxPoint x="440" y="195" as="targetPoint" />
          </mxGeometry>
        </mxCell>
        <mxCell id="SoCJYkqODRn5aVtLT6-E-43" style="orthogonalLoop=1;jettySize=auto;html=1;entryX=0;entryY=0;entryDx=0;entryDy=0;startArrow=none;startFill=0;endArrow=none;endFill=0;strokeColor=#0433ff;curved=1;exitX=0.5;exitY=1;exitDx=0;exitDy=0;" edge="1" parent="1" source="SoCJYkqODRn5aVtLT6-E-18" target="SoCJYkqODRn5aVtLT6-E-20">
          <mxGeometry relative="1" as="geometry">
            <mxPoint x="406" y="196" as="sourcePoint" />
            <mxPoint x="460" y="215" as="targetPoint" />
          </mxGeometry>
        </mxCell>
        <mxCell id="SoCJYkqODRn5aVtLT6-E-46" style="orthogonalLoop=1;jettySize=auto;html=1;exitX=1;exitY=0.5;exitDx=0;exitDy=0;entryX=0;entryY=0;entryDx=0;entryDy=0;endArrow=none;endFill=0;strokeColor=#0433ff;" edge="1" parent="1" source="SoCJYkqODRn5aVtLT6-E-8" target="SoCJYkqODRn5aVtLT6-E-13">
          <mxGeometry relative="1" as="geometry">
            <mxPoint x="186" y="154" as="sourcePoint" />
            <mxPoint x="260" y="135" as="targetPoint" />
          </mxGeometry>
        </mxCell>
        <mxCell id="SoCJYkqODRn5aVtLT6-E-48" value="&lt;div style=&quot;&quot;&gt;Note: the diagram is only a sketch to convey basic ideas. The actual number of nodes and edges varies in different situations.&lt;/div&gt;" style="text;html=1;strokeColor=none;fillColor=none;align=left;verticalAlign=middle;whiteSpace=wrap;rounded=0;" vertex="1" parent="1">
          <mxGeometry x="20" y="320" width="500" height="40" as="geometry" />
        </mxCell>
        <mxCell id="SoCJYkqODRn5aVtLT6-E-49" value="" style="rounded=0;whiteSpace=wrap;html=1;strokeColor=#E6E6E6;dashed=1;" vertex="1" parent="1">
          <mxGeometry x="20" y="5" width="500" height="60" as="geometry" />
        </mxCell>
        <mxCell id="SoCJYkqODRn5aVtLT6-E-50" value="Y" style="ellipse;whiteSpace=wrap;html=1;aspect=fixed;fillColor=#cdeb8b;strokeColor=#36393d;" vertex="1" parent="1">
          <mxGeometry x="20" y="5" width="30" height="30" as="geometry" />
        </mxCell>
        <mxCell id="SoCJYkqODRn5aVtLT6-E-51" value="N" style="ellipse;whiteSpace=wrap;html=1;aspect=fixed;fillColor=#ffcccc;strokeColor=#36393d;" vertex="1" parent="1">
          <mxGeometry x="20" y="35" width="30" height="30" as="geometry" />
        </mxCell>
        <mxCell id="SoCJYkqODRn5aVtLT6-E-52" value=": YIMBYs" style="text;html=1;strokeColor=none;fillColor=none;align=center;verticalAlign=middle;whiteSpace=wrap;rounded=0;" vertex="1" parent="1">
          <mxGeometry x="50" y="5" width="60" height="30" as="geometry" />
        </mxCell>
        <mxCell id="SoCJYkqODRn5aVtLT6-E-53" value=": NIMBYs" style="text;html=1;strokeColor=none;fillColor=none;align=center;verticalAlign=middle;whiteSpace=wrap;rounded=0;" vertex="1" parent="1">
          <mxGeometry x="50" y="35" width="60" height="30" as="geometry" />
        </mxCell>
        <mxCell id="SoCJYkqODRn5aVtLT6-E-55" value="" style="endArrow=none;html=1;rounded=0;entryX=0.714;entryY=0.333;entryDx=0;entryDy=0;entryPerimeter=0;strokeColor=#CC0000;" edge="1" parent="1">
          <mxGeometry width="50" height="50" relative="1" as="geometry">
            <mxPoint x="130" y="49.730000000000004" as="sourcePoint" />
            <mxPoint x="169.94000000000005" y="49.71000000000002" as="targetPoint" />
          </mxGeometry>
        </mxCell>
        <mxCell id="SoCJYkqODRn5aVtLT6-E-56" value="" style="endArrow=none;html=1;rounded=0;entryX=0.714;entryY=0.333;entryDx=0;entryDy=0;entryPerimeter=0;strokeColor=#0000FF;" edge="1" parent="1">
          <mxGeometry width="50" height="50" relative="1" as="geometry">
            <mxPoint x="130" y="19.730000000000004" as="sourcePoint" />
            <mxPoint x="169.94000000000005" y="19.710000000000022" as="targetPoint" />
          </mxGeometry>
        </mxCell>
        <mxCell id="SoCJYkqODRn5aVtLT6-E-57" value=": relationship between two participants who are in the same group" style="text;html=1;strokeColor=none;fillColor=none;align=center;verticalAlign=middle;whiteSpace=wrap;rounded=0;" vertex="1" parent="1">
          <mxGeometry x="160" y="5" width="370" height="30" as="geometry" />
        </mxCell>
        <mxCell id="SoCJYkqODRn5aVtLT6-E-59" value=": relationship between two participants who are in different groups" style="text;html=1;strokeColor=none;fillColor=none;align=center;verticalAlign=middle;whiteSpace=wrap;rounded=0;" vertex="1" parent="1">
          <mxGeometry x="160" y="35" width="370" height="30" as="geometry" />
        </mxCell>
      </root>
    </mxGraphModel>
  </diagram>
</mxfile>
